<svg width="70" height="70" viewBox="0 0 70 70" fill="none" xmlns="http://www.w3.org/2000/svg">
<path d="M35 0C15.6714 0 0 15.6714 0 35C0 50.4663 10.0275 63.5828 23.9364 68.2098C25.686 68.5303 26.3248 67.4493 26.3248 66.5265C26.3248 65.6933 26.2927 62.9334 26.2756 60.011C16.543 62.1258 14.4858 55.8838 14.4858 55.8838C12.8922 51.842 10.5999 50.7654 10.5999 50.7654C7.41911 48.595 10.8412 48.6377 10.8412 48.6377C14.3553 48.8812 16.2054 52.2437 16.2054 52.2437C19.3286 57.5928 24.4 56.0462 26.391 55.1489C26.7091 52.8931 27.6149 51.3464 28.6126 50.4749C20.8432 49.5905 12.67 46.5869 12.67 33.1756C12.67 29.3517 14.0351 26.2329 16.2695 23.7826C15.9128 22.894 14.7079 19.3329 16.6156 14.5157C16.6156 14.5157 19.5508 13.5758 26.2414 18.1046C29.0313 17.3249 32.0242 16.9403 34.9999 16.9275C37.9736 16.9403 40.9685 17.3291 43.7628 18.1088C50.4407 13.5758 53.3801 14.5199 53.3801 14.5199C55.2942 19.3414 54.0894 22.8982 53.7305 23.7826C55.9735 26.2329 57.3279 29.3518 57.3279 33.1756C57.3279 46.6211 49.1418 49.5819 41.3446 50.4492C42.605 51.5344 43.7201 53.6621 43.7201 56.9263C43.7201 61.6047 43.6731 65.3772 43.6731 66.5308C43.6731 67.4622 44.3097 68.5516 46.0828 68.2098C59.9811 63.5742 70 50.4578 70 35C70 15.6714 54.3286 0 35 0Z" fill="white"/>
</svg>
